<?xml version="1.0" encoding="UTF-8" standalone="no"?>
<!DOCTYPE svg PUBLIC "-//W3C//DTD SVG 1.1//EN"
 "http://www.w3.org/Graphics/SVG/1.1/DTD/svg11.dtd">
<!-- Generated by graphviz version 2.43.0 (0)
 -->
<!-- Title: snakemake_dag Pages: 1 -->
<svg width="298pt" height="404pt"
 viewBox="0.00 0.00 297.50 404.00" xmlns="http://www.w3.org/2000/svg" xmlns:xlink="http://www.w3.org/1999/xlink">
<g id="graph0" class="graph" transform="scale(1 1) rotate(0) translate(4 400)">
<title>snakemake_dag</title>
<polygon fill="white" stroke="transparent" points="-4,4 -4,-400 293.5,-400 293.5,4 -4,4"/>
<!-- 0 -->
<g id="node1" class="node">
<title>0</title>
<path fill="none" stroke="#97d856" stroke-width="2" d="M138,-36C138,-36 108,-36 108,-36 102,-36 96,-30 96,-24 96,-24 96,-12 96,-12 96,-6 102,0 108,0 108,0 138,0 138,0 144,0 150,-6 150,-12 150,-12 150,-24 150,-24 150,-30 144,-36 138,-36"/>
<text text-anchor="middle" x="123" y="-15.5" font-family="sans" font-size="10.00">all</text>
</g>
<!-- 1 -->
<g id="node2" class="node">
<title>1</title>
<path fill="none" stroke="#d89556" stroke-width="2" d="M144.5,-108C144.5,-108 101.5,-108 101.5,-108 95.5,-108 89.5,-102 89.5,-96 89.5,-96 89.5,-84 89.5,-84 89.5,-78 95.5,-72 101.5,-72 101.5,-72 144.5,-72 144.5,-72 150.5,-72 156.5,-78 156.5,-84 156.5,-84 156.5,-96 156.5,-96 156.5,-102 150.5,-108 144.5,-108"/>
<text text-anchor="middle" x="123" y="-87.5" font-family="sans" font-size="10.00">run_snpeff</text>
</g>
<!-- 1&#45;&gt;0 -->
<g id="edge1" class="edge">
<title>1&#45;&gt;0</title>
<path fill="none" stroke="grey" stroke-width="2" d="M123,-71.7C123,-63.98 123,-54.71 123,-46.11"/>
<polygon fill="grey" stroke="grey" stroke-width="2" points="126.5,-46.1 123,-36.1 119.5,-46.1 126.5,-46.1"/>
</g>
<!-- 2 -->
<g id="node3" class="node">
<title>2</title>
<path fill="none" stroke="#56d8d8" stroke-width="2" stroke-dasharray="5,2" d="M159,-180C159,-180 87,-180 87,-180 81,-180 75,-174 75,-168 75,-168 75,-156 75,-156 75,-150 81,-144 87,-144 87,-144 159,-144 159,-144 165,-144 171,-150 171,-156 171,-156 171,-168 171,-168 171,-174 165,-180 159,-180"/>
<text text-anchor="middle" x="123" y="-159.5" font-family="sans" font-size="10.00">create_snpeff_db</text>
</g>
<!-- 2&#45;&gt;1 -->
<g id="edge2" class="edge">
<title>2&#45;&gt;1</title>
<path fill="none" stroke="grey" stroke-width="2" d="M123,-143.7C123,-135.98 123,-126.71 123,-118.11"/>
<polygon fill="grey" stroke="grey" stroke-width="2" points="126.5,-118.1 123,-108.1 119.5,-118.1 126.5,-118.1"/>
</g>
<!-- 3 -->
<g id="node4" class="node">
<title>3</title>
<path fill="none" stroke="#569ad8" stroke-width="2" stroke-dasharray="5,2" d="M146,-324C146,-324 102,-324 102,-324 96,-324 90,-318 90,-312 90,-312 90,-300 90,-300 90,-294 96,-288 102,-288 102,-288 146,-288 146,-288 152,-288 158,-294 158,-300 158,-300 158,-312 158,-312 158,-318 152,-324 146,-324"/>
<text text-anchor="middle" x="124" y="-303.5" font-family="sans" font-size="10.00">extract_cds</text>
</g>
<!-- 3&#45;&gt;2 -->
<g id="edge3" class="edge">
<title>3&#45;&gt;2</title>
<path fill="none" stroke="grey" stroke-width="2" d="M117.35,-287.63C113.8,-277.42 109.8,-264.17 108,-252 105.66,-236.17 105.8,-231.85 108,-216 109.18,-207.48 111.39,-198.39 113.75,-190.2"/>
<polygon fill="grey" stroke="grey" stroke-width="2" points="117.17,-190.99 116.76,-180.41 110.48,-188.94 117.17,-190.99"/>
</g>
<!-- 7 -->
<g id="node8" class="node">
<title>7</title>
<path fill="none" stroke="#56d89a" stroke-width="2" stroke-dasharray="5,2" d="M186.5,-252C186.5,-252 129.5,-252 129.5,-252 123.5,-252 117.5,-246 117.5,-240 117.5,-240 117.5,-228 117.5,-228 117.5,-222 123.5,-216 129.5,-216 129.5,-216 186.5,-216 186.5,-216 192.5,-216 198.5,-222 198.5,-228 198.5,-228 198.5,-240 198.5,-240 198.5,-246 192.5,-252 186.5,-252"/>
<text text-anchor="middle" x="158" y="-231.5" font-family="sans" font-size="10.00">setup_dp_env</text>
</g>
<!-- 3&#45;&gt;7 -->
<g id="edge9" class="edge">
<title>3&#45;&gt;7</title>
<path fill="none" stroke="grey" stroke-width="2" d="M132.4,-287.7C136.27,-279.73 140.95,-270.1 145.24,-261.26"/>
<polygon fill="grey" stroke="grey" stroke-width="2" points="148.47,-262.63 149.69,-252.1 142.17,-259.57 148.47,-262.63"/>
</g>
<!-- 4 -->
<g id="node5" class="node">
<title>4</title>
<path fill="none" stroke="#d85656" stroke-width="2" stroke-dasharray="5,2" d="M123,-396C123,-396 37,-396 37,-396 31,-396 25,-390 25,-384 25,-384 25,-372 25,-372 25,-366 31,-360 37,-360 37,-360 123,-360 123,-360 129,-360 135,-366 135,-372 135,-372 135,-384 135,-384 135,-390 129,-396 123,-396"/>
<text text-anchor="middle" x="80" y="-381" font-family="sans" font-size="10.00">index_genome</text>
<text text-anchor="middle" x="80" y="-370" font-family="sans" font-size="10.00">genome: genome_1</text>
</g>
<!-- 4&#45;&gt;3 -->
<g id="edge7" class="edge">
<title>4&#45;&gt;3</title>
<path fill="none" stroke="grey" stroke-width="2" d="M90.88,-359.7C95.99,-351.56 102.2,-341.69 107.84,-332.7"/>
<polygon fill="grey" stroke="grey" stroke-width="2" points="110.89,-334.43 113.25,-324.1 104.96,-330.71 110.89,-334.43"/>
</g>
<!-- 5 -->
<g id="node6" class="node">
<title>5</title>
<path fill="none" stroke="#59d856" stroke-width="2" stroke-dasharray="5,2" d="M60,-324C60,-324 12,-324 12,-324 6,-324 0,-318 0,-312 0,-312 0,-300 0,-300 0,-294 6,-288 12,-288 12,-288 60,-288 60,-288 66,-288 72,-294 72,-300 72,-300 72,-312 72,-312 72,-318 66,-324 60,-324"/>
<text text-anchor="middle" x="36" y="-303.5" font-family="sans" font-size="10.00">extract_prot</text>
</g>
<!-- 4&#45;&gt;5 -->
<g id="edge8" class="edge">
<title>4&#45;&gt;5</title>
<path fill="none" stroke="grey" stroke-width="2" d="M69.12,-359.7C64.01,-351.56 57.8,-341.69 52.16,-332.7"/>
<polygon fill="grey" stroke="grey" stroke-width="2" points="55.04,-330.71 46.75,-324.1 49.11,-334.43 55.04,-330.71"/>
</g>
<!-- 5&#45;&gt;2 -->
<g id="edge4" class="edge">
<title>5&#45;&gt;2</title>
<path fill="none" stroke="grey" stroke-width="2" d="M46.49,-287.87C61.58,-263.24 89.52,-217.64 107.14,-188.88"/>
<polygon fill="grey" stroke="grey" stroke-width="2" points="110.23,-190.54 112.47,-180.19 104.26,-186.89 110.23,-190.54"/>
</g>
<!-- 5&#45;&gt;7 -->
<g id="edge10" class="edge">
<title>5&#45;&gt;7</title>
<path fill="none" stroke="grey" stroke-width="2" d="M65.84,-287.88C81.94,-278.64 102,-267.13 119.29,-257.21"/>
<polygon fill="grey" stroke="grey" stroke-width="2" points="121.11,-260.2 128.04,-252.19 117.63,-254.13 121.11,-260.2"/>
</g>
<!-- 6 -->
<g id="node7" class="node">
<title>6</title>
<path fill="none" stroke="#d6d856" stroke-width="2" stroke-dasharray="5,2" d="M277.5,-324C277.5,-324 188.5,-324 188.5,-324 182.5,-324 176.5,-318 176.5,-312 176.5,-312 176.5,-300 176.5,-300 176.5,-294 182.5,-288 188.5,-288 188.5,-288 277.5,-288 277.5,-288 283.5,-288 289.5,-294 289.5,-300 289.5,-300 289.5,-312 289.5,-312 289.5,-318 283.5,-324 277.5,-324"/>
<text text-anchor="middle" x="233" y="-309" font-family="sans" font-size="10.00">create_snpeff_config</text>
<text text-anchor="middle" x="233" y="-298" font-family="sans" font-size="10.00">genome: genome_1</text>
</g>
<!-- 6&#45;&gt;2 -->
<g id="edge5" class="edge">
<title>6&#45;&gt;2</title>
<path fill="none" stroke="grey" stroke-width="2" d="M231.63,-287.99C229.32,-268.8 223.18,-237.46 207,-216 197.55,-203.46 184.19,-193.14 170.91,-185.04"/>
<polygon fill="grey" stroke="grey" stroke-width="2" points="172.64,-182 162.23,-180.04 169.14,-188.07 172.64,-182"/>
</g>
<!-- 6&#45;&gt;7 -->
<g id="edge11" class="edge">
<title>6&#45;&gt;7</title>
<path fill="none" stroke="grey" stroke-width="2" d="M214.46,-287.7C205.2,-279.05 193.84,-268.45 183.74,-259.03"/>
<polygon fill="grey" stroke="grey" stroke-width="2" points="186.02,-256.37 176.33,-252.1 181.25,-261.49 186.02,-256.37"/>
</g>
<!-- 7&#45;&gt;2 -->
<g id="edge6" class="edge">
<title>7&#45;&gt;2</title>
<path fill="none" stroke="grey" stroke-width="2" d="M149.35,-215.7C145.36,-207.73 140.55,-198.1 136.13,-189.26"/>
<polygon fill="grey" stroke="grey" stroke-width="2" points="139.15,-187.48 131.55,-180.1 132.89,-190.61 139.15,-187.48"/>
</g>
</g>
</svg>
