<?xml version="1.0" encoding="UTF-8" standalone="no"?>
<!DOCTYPE svg PUBLIC "-//W3C//DTD SVG 1.1//EN"
 "http://www.w3.org/Graphics/SVG/1.1/DTD/svg11.dtd">
<!-- Generated by graphviz version 2.43.0 (0)
 -->
<!-- Title: snakemake_dag Pages: 1 -->
<svg width="766pt" height="260pt"
 viewBox="0.00 0.00 765.50 260.00" xmlns="http://www.w3.org/2000/svg" xmlns:xlink="http://www.w3.org/1999/xlink">
<g id="graph0" class="graph" transform="scale(1 1) rotate(0) translate(4 256)">
<title>snakemake_dag</title>
<polygon fill="white" stroke="transparent" points="-4,4 -4,-256 761.5,-256 761.5,4 -4,4"/>
<!-- 0 -->
<g id="node1" class="node">
<title>0</title>
<path fill="none" stroke="#56a2d8" stroke-width="2" d="M388,-36C388,-36 358,-36 358,-36 352,-36 346,-30 346,-24 346,-24 346,-12 346,-12 346,-6 352,0 358,0 358,0 388,0 388,0 394,0 400,-6 400,-12 400,-12 400,-24 400,-24 400,-30 394,-36 388,-36"/>
<text text-anchor="middle" x="373" y="-15.5" font-family="sans" font-size="10.00">all</text>
</g>
<!-- 1 -->
<g id="node2" class="node">
<title>1</title>
<path fill="none" stroke="#d85656" stroke-width="2" d="M280,-108C280,-108 208,-108 208,-108 202,-108 196,-102 196,-96 196,-96 196,-84 196,-84 196,-78 202,-72 208,-72 208,-72 280,-72 280,-72 286,-72 292,-78 292,-84 292,-84 292,-96 292,-96 292,-102 286,-108 280,-108"/>
<text text-anchor="middle" x="244" y="-87.5" font-family="sans" font-size="10.00">create_snpeff_db</text>
</g>
<!-- 1&#45;&gt;0 -->
<g id="edge1" class="edge">
<title>1&#45;&gt;0</title>
<path fill="none" stroke="grey" stroke-width="2" d="M275.56,-71.88C294.1,-61.81 317.61,-49.05 336.9,-38.59"/>
<polygon fill="grey" stroke="grey" stroke-width="2" points="338.58,-41.66 345.7,-33.81 335.24,-35.51 338.58,-41.66"/>
</g>
<!-- 2 -->
<g id="node3" class="node">
<title>2</title>
<path fill="none" stroke="#78d856" stroke-width="2" stroke-dasharray="5,2" d="M98,-252C98,-252 12,-252 12,-252 6,-252 0,-246 0,-240 0,-240 0,-228 0,-228 0,-222 6,-216 12,-216 12,-216 98,-216 98,-216 104,-216 110,-222 110,-228 110,-228 110,-240 110,-240 110,-246 104,-252 98,-252"/>
<text text-anchor="middle" x="55" y="-237" font-family="sans" font-size="10.00">extract_cds</text>
<text text-anchor="middle" x="55" y="-226" font-family="sans" font-size="10.00">genome: genome_1</text>
</g>
<!-- 2&#45;&gt;1 -->
<g id="edge3" class="edge">
<title>2&#45;&gt;1</title>
<path fill="none" stroke="grey" stroke-width="2" d="M77.8,-215.87C111.57,-190.5 174.98,-142.85 212.96,-114.32"/>
<polygon fill="grey" stroke="grey" stroke-width="2" points="215.23,-116.99 221.12,-108.19 211.02,-111.4 215.23,-116.99"/>
</g>
<!-- 5 -->
<g id="node6" class="node">
<title>5</title>
<path fill="none" stroke="#d8a456" stroke-width="2" d="M272.5,-180C272.5,-180 215.5,-180 215.5,-180 209.5,-180 203.5,-174 203.5,-168 203.5,-168 203.5,-156 203.5,-156 203.5,-150 209.5,-144 215.5,-144 215.5,-144 272.5,-144 272.5,-144 278.5,-144 284.5,-150 284.5,-156 284.5,-156 284.5,-168 284.5,-168 284.5,-174 278.5,-180 272.5,-180"/>
<text text-anchor="middle" x="244" y="-159.5" font-family="sans" font-size="10.00">setup_dp_env</text>
</g>
<!-- 2&#45;&gt;5 -->
<g id="edge7" class="edge">
<title>2&#45;&gt;5</title>
<path fill="none" stroke="grey" stroke-width="2" d="M101.23,-215.88C129.32,-205.48 165.17,-192.2 193.92,-181.55"/>
<polygon fill="grey" stroke="grey" stroke-width="2" points="195.21,-184.8 203.38,-178.05 192.78,-178.24 195.21,-184.8"/>
</g>
<!-- 3 -->
<g id="node4" class="node">
<title>3</title>
<path fill="none" stroke="#56d8c9" stroke-width="2" stroke-dasharray="5,2" d="M226,-252C226,-252 140,-252 140,-252 134,-252 128,-246 128,-240 128,-240 128,-228 128,-228 128,-222 134,-216 140,-216 140,-216 226,-216 226,-216 232,-216 238,-222 238,-228 238,-228 238,-240 238,-240 238,-246 232,-252 226,-252"/>
<text text-anchor="middle" x="183" y="-237" font-family="sans" font-size="10.00">extract_prot</text>
<text text-anchor="middle" x="183" y="-226" font-family="sans" font-size="10.00">genome: genome_1</text>
</g>
<!-- 3&#45;&gt;1 -->
<g id="edge4" class="edge">
<title>3&#45;&gt;1</title>
<path fill="none" stroke="grey" stroke-width="2" d="M182.03,-215.73C181.68,-197.13 183.13,-167.11 194,-144 198.99,-133.4 206.91,-123.53 215,-115.25"/>
<polygon fill="grey" stroke="grey" stroke-width="2" points="217.62,-117.58 222.39,-108.12 212.76,-112.54 217.62,-117.58"/>
</g>
<!-- 3&#45;&gt;5 -->
<g id="edge8" class="edge">
<title>3&#45;&gt;5</title>
<path fill="none" stroke="grey" stroke-width="2" d="M198.08,-215.7C205.39,-207.3 214.31,-197.07 222.34,-187.86"/>
<polygon fill="grey" stroke="grey" stroke-width="2" points="225.16,-189.94 229.09,-180.1 219.89,-185.34 225.16,-189.94"/>
</g>
<!-- 4 -->
<g id="node5" class="node">
<title>4</title>
<path fill="none" stroke="#56d87b" stroke-width="2" stroke-dasharray="5,2" d="M357.5,-252C357.5,-252 268.5,-252 268.5,-252 262.5,-252 256.5,-246 256.5,-240 256.5,-240 256.5,-228 256.5,-228 256.5,-222 262.5,-216 268.5,-216 268.5,-216 357.5,-216 357.5,-216 363.5,-216 369.5,-222 369.5,-228 369.5,-228 369.5,-240 369.5,-240 369.5,-246 363.5,-252 357.5,-252"/>
<text text-anchor="middle" x="313" y="-237" font-family="sans" font-size="10.00">create_snpeff_config</text>
<text text-anchor="middle" x="313" y="-226" font-family="sans" font-size="10.00">genome: genome_1</text>
</g>
<!-- 4&#45;&gt;1 -->
<g id="edge5" class="edge">
<title>4&#45;&gt;1</title>
<path fill="none" stroke="grey" stroke-width="2" d="M311.79,-215.69C309.89,-197.05 305.08,-166.99 293,-144 287.56,-133.64 279.56,-123.78 271.6,-115.44"/>
<polygon fill="grey" stroke="grey" stroke-width="2" points="273.93,-112.82 264.38,-108.24 268.99,-117.78 273.93,-112.82"/>
</g>
<!-- 4&#45;&gt;5 -->
<g id="edge9" class="edge">
<title>4&#45;&gt;5</title>
<path fill="none" stroke="grey" stroke-width="2" d="M295.94,-215.7C287.5,-207.14 277.18,-196.66 267.96,-187.3"/>
<polygon fill="grey" stroke="grey" stroke-width="2" points="270.37,-184.77 260.86,-180.1 265.39,-189.68 270.37,-184.77"/>
</g>
<!-- 5&#45;&gt;1 -->
<g id="edge6" class="edge">
<title>5&#45;&gt;1</title>
<path fill="none" stroke="grey" stroke-width="2" d="M244,-143.7C244,-135.98 244,-126.71 244,-118.11"/>
<polygon fill="grey" stroke="grey" stroke-width="2" points="247.5,-118.1 244,-108.1 240.5,-118.1 247.5,-118.1"/>
</g>
<!-- 6 -->
<g id="node7" class="node">
<title>6</title>
<path fill="none" stroke="#d85656" stroke-width="2" d="M538,-108C538,-108 466,-108 466,-108 460,-108 454,-102 454,-96 454,-96 454,-84 454,-84 454,-78 460,-72 466,-72 466,-72 538,-72 538,-72 544,-72 550,-78 550,-84 550,-84 550,-96 550,-96 550,-102 544,-108 538,-108"/>
<text text-anchor="middle" x="502" y="-87.5" font-family="sans" font-size="10.00">create_snpeff_db</text>
</g>
<!-- 6&#45;&gt;0 -->
<g id="edge2" class="edge">
<title>6&#45;&gt;0</title>
<path fill="none" stroke="grey" stroke-width="2" d="M470.44,-71.88C451.9,-61.81 428.39,-49.05 409.1,-38.59"/>
<polygon fill="grey" stroke="grey" stroke-width="2" points="410.76,-35.51 400.3,-33.81 407.42,-41.66 410.76,-35.51"/>
</g>
<!-- 7 -->
<g id="node8" class="node">
<title>7</title>
<path fill="none" stroke="#78d856" stroke-width="2" d="M486,-252C486,-252 400,-252 400,-252 394,-252 388,-246 388,-240 388,-240 388,-228 388,-228 388,-222 394,-216 400,-216 400,-216 486,-216 486,-216 492,-216 498,-222 498,-228 498,-228 498,-240 498,-240 498,-246 492,-252 486,-252"/>
<text text-anchor="middle" x="443" y="-237" font-family="sans" font-size="10.00">extract_cds</text>
<text text-anchor="middle" x="443" y="-226" font-family="sans" font-size="10.00">genome: genome_2</text>
</g>
<!-- 7&#45;&gt;6 -->
<g id="edge10" class="edge">
<title>7&#45;&gt;6</title>
<path fill="none" stroke="grey" stroke-width="2" d="M450.12,-215.87C460.26,-191.46 478.97,-146.43 490.93,-117.64"/>
<polygon fill="grey" stroke="grey" stroke-width="2" points="494.25,-118.77 494.86,-108.19 487.79,-116.08 494.25,-118.77"/>
</g>
<!-- 10 -->
<g id="node11" class="node">
<title>10</title>
<path fill="none" stroke="#d8a456" stroke-width="2" d="M599.5,-180C599.5,-180 542.5,-180 542.5,-180 536.5,-180 530.5,-174 530.5,-168 530.5,-168 530.5,-156 530.5,-156 530.5,-150 536.5,-144 542.5,-144 542.5,-144 599.5,-144 599.5,-144 605.5,-144 611.5,-150 611.5,-156 611.5,-156 611.5,-168 611.5,-168 611.5,-174 605.5,-180 599.5,-180"/>
<text text-anchor="middle" x="571" y="-159.5" font-family="sans" font-size="10.00">setup_dp_env</text>
</g>
<!-- 7&#45;&gt;10 -->
<g id="edge14" class="edge">
<title>7&#45;&gt;10</title>
<path fill="none" stroke="grey" stroke-width="2" d="M474.31,-215.88C491.2,-206.64 512.25,-195.13 530.38,-185.21"/>
<polygon fill="grey" stroke="grey" stroke-width="2" points="532.47,-188.06 539.57,-180.19 529.11,-181.92 532.47,-188.06"/>
</g>
<!-- 8 -->
<g id="node9" class="node">
<title>8</title>
<path fill="none" stroke="#56d8c9" stroke-width="2" d="M614,-252C614,-252 528,-252 528,-252 522,-252 516,-246 516,-240 516,-240 516,-228 516,-228 516,-222 522,-216 528,-216 528,-216 614,-216 614,-216 620,-216 626,-222 626,-228 626,-228 626,-240 626,-240 626,-246 620,-252 614,-252"/>
<text text-anchor="middle" x="571" y="-237" font-family="sans" font-size="10.00">extract_prot</text>
<text text-anchor="middle" x="571" y="-226" font-family="sans" font-size="10.00">genome: genome_2</text>
</g>
<!-- 8&#45;&gt;6 -->
<g id="edge11" class="edge">
<title>8&#45;&gt;6</title>
<path fill="none" stroke="grey" stroke-width="2" d="M550.14,-215.87C539.86,-206.34 528.17,-193.67 521,-180 510.93,-160.82 506.2,-136.66 503.97,-118.35"/>
<polygon fill="grey" stroke="grey" stroke-width="2" points="507.45,-117.92 502.93,-108.33 500.49,-118.64 507.45,-117.92"/>
</g>
<!-- 8&#45;&gt;10 -->
<g id="edge15" class="edge">
<title>8&#45;&gt;10</title>
<path fill="none" stroke="grey" stroke-width="2" d="M571,-215.7C571,-207.98 571,-198.71 571,-190.11"/>
<polygon fill="grey" stroke="grey" stroke-width="2" points="574.5,-190.1 571,-180.1 567.5,-190.1 574.5,-190.1"/>
</g>
<!-- 9 -->
<g id="node10" class="node">
<title>9</title>
<path fill="none" stroke="#56d87b" stroke-width="2" stroke-dasharray="5,2" d="M745.5,-252C745.5,-252 656.5,-252 656.5,-252 650.5,-252 644.5,-246 644.5,-240 644.5,-240 644.5,-228 644.5,-228 644.5,-222 650.5,-216 656.5,-216 656.5,-216 745.5,-216 745.5,-216 751.5,-216 757.5,-222 757.5,-228 757.5,-228 757.5,-240 757.5,-240 757.5,-246 751.5,-252 745.5,-252"/>
<text text-anchor="middle" x="701" y="-237" font-family="sans" font-size="10.00">create_snpeff_config</text>
<text text-anchor="middle" x="701" y="-226" font-family="sans" font-size="10.00">genome: genome_2</text>
</g>
<!-- 9&#45;&gt;6 -->
<g id="edge12" class="edge">
<title>9&#45;&gt;6</title>
<path fill="none" stroke="grey" stroke-width="2" d="M688.94,-215.98C674.42,-196.49 648.42,-164.6 620,-144 601.71,-130.74 579.58,-119.72 559.45,-111.23"/>
<polygon fill="grey" stroke="grey" stroke-width="2" points="560.64,-107.93 550.06,-107.38 557.99,-114.41 560.64,-107.93"/>
</g>
<!-- 9&#45;&gt;10 -->
<g id="edge16" class="edge">
<title>9&#45;&gt;10</title>
<path fill="none" stroke="grey" stroke-width="2" d="M669.2,-215.88C651.89,-206.55 630.28,-194.92 611.74,-184.94"/>
<polygon fill="grey" stroke="grey" stroke-width="2" points="613.39,-181.85 602.92,-180.19 610.07,-188.01 613.39,-181.85"/>
</g>
<!-- 10&#45;&gt;6 -->
<g id="edge13" class="edge">
<title>10&#45;&gt;6</title>
<path fill="none" stroke="grey" stroke-width="2" d="M553.94,-143.7C545.5,-135.14 535.18,-124.66 525.96,-115.3"/>
<polygon fill="grey" stroke="grey" stroke-width="2" points="528.37,-112.77 518.86,-108.1 523.39,-117.68 528.37,-112.77"/>
</g>
</g>
</svg>
